<?xml version="1.0" encoding="UTF-8"?>
<svg width="512" height="512" viewBox="0 0 512 512" xmlns="http://www.w3.org/2000/svg">
  <defs>
    <linearGradient id="gradient" x1="0%" y1="0%" x2="100%" y2="100%">
      <stop offset="0%" style="stop-color:#4299e1;stop-opacity:1" />
      <stop offset="100%" style="stop-color:#2b77e6;stop-opacity:1" />
    </linearGradient>
  </defs>
  
  <!-- Background -->
  <rect width="512" height="512" rx="64" fill="url(#gradient)"/>
  
  <!-- Document outline -->
  <rect x="96" y="80" width="320" height="352" rx="16" fill="white" opacity="0.95"/>
  
  <!-- Header lines -->
  <rect x="128" y="128" width="160" height="16" rx="8" fill="#2d3748"/>
  <rect x="128" y="160" width="120" height="12" rx="6" fill="#4a5568"/>
  
  <!-- Markdown content representation -->
  <rect x="128" y="200" width="256" height="8" rx="4" fill="#718096"/>
  <rect x="128" y="220" width="200" height="8" rx="4" fill="#718096"/>
  <rect x="128" y="240" width="240" height="8" rx="4" fill="#718096"/>
  
  <!-- Code block -->
  <rect x="128" y="270" width="256" height="60" rx="8" fill="#f7fafc" stroke="#e2e8f0" stroke-width="2"/>
  <rect x="144" y="286" width="80" height="6" rx="3" fill="#38a169"/>
  <rect x="144" y="300" width="120" height="6" rx="3" fill="#3182ce"/>
  <rect x="144" y="314" width="100" height="6" rx="3" fill="#805ad5"/>
  
  <!-- More content -->
  <rect x="128" y="350" width="256" height="8" rx="4" fill="#718096"/>
  <rect x="128" y="370" width="180" height="8" rx="4" fill="#718096"/>
  
  <!-- Markdown 'M' symbol overlay -->
  <text x="256" y="460" font-family="Arial, sans-serif" font-size="80" font-weight="bold" text-anchor="middle" fill="white" opacity="0.3">M</text>
</svg>